# xmcd
#
# Track frame offsets: 
#        183
#        15480
#        28883
#        43215
#        55918
#        66863
#        83703
#        96588
#        111773
#        124665
#        140733
#        153228
#        169265
#        182235
#        196200
#        210115
#        223643
#        237415
#        250385
#        266790
#        281715
#        297770
#        310430
#        323930
#        339753
#
# Disc length: 4690 seconds
#
# Revision: 3
# Processed by: cddbd v1.5.2PL0 Copyright (c) Steve Scherf et al.
# Submitted via: ExactAudioCopy v0.99pb3
#
DISCID=7e125019
DTITLE=Kilima Hawaiians - Eine Insel aus Träumen geboren
DYEAR=1954
DGENRE=Oldies
TTITLE0=Eine Insel aus Träumen geboren
TTITLE1=Am Strande von Waikiki
TTITLE2=Hawaii
TTITLE3=Hallo, hallo
TTITLE4=Hawaiianischer Kuss
TTITLE5=Märchen von Tahiti
TTITLE6=Im blauen Meer liegt Hawaii
TTITLE7=Südseewellen
TTITLE8=Komm mit mir nach Tahiti
TTITLE9=Alo-ahe
TTITLE10=Ich hab' Sehnsucht nach Hawaii
TTITLE11=Schöne Insel Ambon
TTITLE12=Wer Hawaii liebt
TTITLE13=Hilo Hula-Mädchen
TTITLE14=Blume von Hawaii
TTITLE15=Stern meiner Liebe
TTITLE16=Rose von Honolulu
TTITLE17=Wenn du mal in Hawaii bist
TTITLE18=Fahr' mich in die Welt, mein stolzer Kapitän
TTITLE19=Es war am schönsten Strand von Hiloland
TTITLE20=Sarie Marei
TTITLE21=Samo Eiland
TTITLE22=Dort in Hawaii
TTITLE23=Einmal wieder in Hawaii
TTITLE24=Ade, ade
EXTD=
EXTT0=
EXTT1=
EXTT2=
EXTT3=
EXTT4=
EXTT5=
EXTT6=
EXTT7=
EXTT8=
EXTT9=
EXTT10=
EXTT11=
EXTT12=
EXTT13=
EXTT14=
EXTT15=
EXTT16=
EXTT17=
EXTT18=
EXTT19=
EXTT20=
EXTT21=
EXTT22=
EXTT23=
EXTT24=
PLAYORDER=
